# xmcd
#
# Track frame offsets:
#	150
#	6920
#	30400
#	55175
#	60860
#	71060
#	87240
#	101675
#	123352
#	139897
#	142612
#	155950
#	167040
#	179195
#
# Disc length: 2683 seconds
#
# Revision: 1
# Processed by: cddbd v1.5.2PL0 Copyright (c) Steve Scherf et al.
# Submitted via: audiograbber 1.83.01
#
DISCID=bf0a790e
DTITLE=Colin Stetson - New History of Warfare Vol 2: Judges
DYEAR=2011
DGENRE=Avantgarde
TTITLE0=Awake on Foreign Shores
TTITLE1=Judges
TTITLE2=The Stars in His Head (Dark Lights Remix)
TTITLE3=All the Days I've Missed You (ILAIJ I)
TTITLE4=From No Part of Me Could I Summon a Voice
TTITLE5=A Dream of Water
TTITLE6=Home
TTITLE7=Lord, I Just Can't Keep from Crying Sometimes
TTITLE8=Clothed in the Skin of the Dead
TTITLE9=All the Colours Bleached to White (ILAIJ II)
TTITLE10=Red Horse (Judges II)
TTITLE11=The Righteous Wrath of an Honourable Man
TTITLE12=Fear of the Unknown and the Blazing Sun
TTITLE13=In Love and In Justice
EXTD=
EXTT0=
EXTT1=
EXTT2=
EXTT3=
EXTT4=
EXTT5=
EXTT6=
EXTT7=
EXTT8=
EXTT9=
EXTT10=
EXTT11=
EXTT12=
EXTT13=
PLAYORDER=
